<svg width="36" height="36" viewBox="0 0 36 36" fill="none" xmlns="http://www.w3.org/2000/svg">
<path d="M18 3C9.75 3 3 9.75 3 18C3 20.7 3.75117 23.25 4.95117 25.5L3 33L10.7988 31.2012C13.0488 32.4012 15.45 33 18 33C26.25 33 33 26.25 33 18C33 13.95 31.4994 10.2006 28.6494 7.35059C25.7994 4.50059 22.05 3 18 3ZM18 6C21.15 6 24.1488 7.20117 26.5488 9.45117C28.7988 11.8512 30 14.85 30 18C30 24.6 24.6 30 18 30C16.05 30 13.9488 29.55 12.2988 28.5L11.25 27.8994L10.2012 28.2012L7.20117 28.9512L7.95117 26.25L8.25 25.0488L7.64941 24C6.59941 22.2 6 20.1 6 18C6 11.4 11.4 6 18 6ZM12.75 11.1006C12.45 11.1006 12.0012 11.0988 11.7012 11.5488C11.2512 11.9988 10.3506 12.9012 10.3506 14.7012C10.3506 16.5012 11.7006 18.3006 11.8506 18.6006C12.1506 18.9006 14.5488 22.7988 18.2988 24.2988C21.4488 25.4988 22.0488 25.2012 22.7988 25.2012C23.5488 25.0512 25.0506 24.2994 25.3506 23.3994C25.6506 22.4994 25.6488 21.7488 25.7988 21.2988C25.6488 21.1488 25.4988 21.0006 25.0488 20.8506C24.7488 20.7006 22.95 19.7994 22.5 19.6494C22.05 19.4994 21.9006 19.3488 21.6006 19.7988C21.3006 20.2488 20.5494 20.9988 20.3994 21.2988C20.2494 21.5988 20.0994 21.6012 19.6494 21.4512C19.3494 21.3012 18.1494 20.9994 16.6494 19.6494C15.4494 18.7494 14.6988 17.5506 14.5488 17.1006C14.2488 16.8006 14.5512 16.5006 14.7012 16.3506L15.2988 15.75C15.4488 15.6 15.4506 15.2994 15.6006 15.1494C15.7506 14.9994 15.7506 14.8488 15.6006 14.5488C15.4506 14.2488 14.6994 12.4512 14.3994 11.7012C14.0994 11.1012 13.8 11.1006 13.5 11.1006H12.75Z" fill="white"/>
</svg>
