<svg width="36" height="36" viewBox="0 0 36 36" fill="none" xmlns="http://www.w3.org/2000/svg">
<path d="M12 4.5C7.8 4.5 4.5 7.8 4.5 12V24C4.5 28.2 7.8 31.5 12 31.5H24C28.2 31.5 31.5 28.2 31.5 24V12C31.5 7.8 28.2 4.5 24 4.5H12ZM12 7.5H24C26.55 7.5 28.5 9.45 28.5 12V24C28.5 26.55 26.55 28.5 24 28.5H12C9.45 28.5 7.5 26.55 7.5 24V12C7.5 9.45 9.45 7.5 12 7.5ZM25.5 9C24.6 9 24 9.6 24 10.5C24 11.4 24.6 12 25.5 12C26.4 12 27 11.4 27 10.5C27 9.6 26.4 9 25.5 9ZM18 10.5C13.8 10.5 10.5 13.8 10.5 18C10.5 22.2 13.8 25.5 18 25.5C22.2 25.5 25.5 22.2 25.5 18C25.5 13.8 22.2 10.5 18 10.5ZM18 13.5C20.55 13.5 22.5 15.45 22.5 18C22.5 20.55 20.55 22.5 18 22.5C15.45 22.5 13.5 20.55 13.5 18C13.5 15.45 15.45 13.5 18 13.5Z" fill="white"/>
</svg>
