<svg width="36" height="36" viewBox="0 0 36 36" fill="none" xmlns="http://www.w3.org/2000/svg">
<path d="M8.51953 3L10.7373 11.0156V14.8594H12.6592V11.0156L14.9062 3H12.9697L12.1641 6.64746C11.9376 7.71246 11.7935 8.4694 11.7275 8.9209H11.6689C11.5744 8.2894 11.4304 7.52681 11.2324 6.63281L10.4561 3H8.51953ZM17.1475 6.02637C16.4965 6.02637 15.9718 6.15359 15.5713 6.41309C15.1708 6.67109 14.8755 7.08391 14.6865 7.64941C14.499 8.21491 14.4053 8.96348 14.4053 9.89648V11.1562C14.4053 12.0787 14.4864 12.8175 14.6514 13.374C14.8164 13.9305 15.0948 14.3405 15.4863 14.6045C15.8778 14.8685 16.4165 15 17.1035 15C17.7725 15 18.3043 14.8699 18.6943 14.6104C19.0843 14.3509 19.367 13.9438 19.541 13.3828C19.715 12.8218 19.8018 12.0802 19.8018 11.1562V9.89648C19.8018 8.96498 19.7137 8.2192 19.5352 7.6582C19.3567 7.0987 19.0725 6.68587 18.6855 6.42188C18.2985 6.15788 17.788 6.02637 17.1475 6.02637ZM20.8184 6.19629V12.668C20.8184 13.469 20.9526 14.0581 21.2256 14.4346C21.4986 14.8111 21.9226 15 22.4971 15C23.3251 15 23.9493 14.5998 24.3633 13.7988H24.4043L24.5742 14.8594H26.1006V6.19629H24.1523V13.0781C24.0773 13.2386 23.9626 13.3701 23.8066 13.4736C23.6506 13.5786 23.4898 13.6289 23.3203 13.6289C23.1223 13.6289 22.981 13.5478 22.8955 13.3828C22.81 13.2178 22.7666 12.9407 22.7666 12.5537V6.19629H20.8184ZM17.1035 7.36816C17.3765 7.36816 17.5697 7.51083 17.6777 7.79883C17.7857 8.08533 17.8389 8.54156 17.8389 9.16406V11.8623C17.8389 12.5028 17.7857 12.966 17.6777 13.248C17.5697 13.53 17.3779 13.6714 17.1064 13.6729C16.8334 13.6729 16.6445 13.53 16.541 13.248C16.436 12.966 16.3857 12.5028 16.3857 11.8623V9.16406C16.3857 8.54306 16.4389 8.08683 16.5469 7.79883C16.6549 7.51233 16.8395 7.36816 17.1035 7.36816ZM7.5 16.5C5.85 16.5 4.5 17.85 4.5 19.5V30C4.5 31.65 5.85 33 7.5 33H28.5C30.15 33 31.5 31.65 31.5 30V19.5C31.5 17.85 30.15 16.5 28.5 16.5H7.5ZM18.0732 19.5H19.6582V23.3525H19.6699C19.8124 23.0735 20.0168 22.8497 20.2793 22.6787C20.5418 22.5077 20.8259 22.4238 21.1289 22.4238C21.5189 22.4238 21.8239 22.5274 22.0459 22.7344C22.2679 22.9414 22.4303 23.2758 22.5293 23.7363C22.6283 24.1983 22.6758 24.8392 22.6758 25.6582V26.8154H22.6787C22.6787 27.9059 22.5457 28.7048 22.2832 29.2178C22.0207 29.7308 21.6122 29.9883 21.0557 29.9883C20.7452 29.9883 20.464 29.9169 20.209 29.7744C19.954 29.6319 19.7623 29.436 19.6348 29.1885H19.5996L19.4326 29.8799H18.0732V19.5ZM8.22949 19.8691H13.1074V21.1963H11.4727V29.8799H9.86426V21.1963H8.22949V19.8691ZM25.6465 22.4268C26.2105 22.4268 26.6443 22.5303 26.9473 22.7373C27.2488 22.9443 27.4614 23.2676 27.5859 23.7041C27.7089 24.1421 27.7705 24.7466 27.7705 25.5176V26.7715H25.0166V27.1436C25.0166 27.6131 25.0291 27.9642 25.0576 28.1982C25.0861 28.4322 25.1435 28.6044 25.2305 28.7109C25.3175 28.8189 25.4518 28.8721 25.6348 28.8721C25.8808 28.8721 26.0501 28.7755 26.1416 28.585C26.2331 28.3945 26.2835 28.0783 26.291 27.6328L27.7119 27.7148C27.7194 27.7778 27.7236 27.8675 27.7236 27.9785C27.7236 28.655 27.5375 29.1602 27.167 29.4932C26.7965 29.8277 26.2761 29.9941 25.5996 29.9941C24.7881 29.9941 24.2186 29.738 23.8916 29.2295C23.5646 28.721 23.4023 27.9347 23.4023 26.8682V25.5908C23.4023 24.4928 23.5717 23.691 23.9092 23.1855C24.2467 22.68 24.8275 22.4268 25.6465 22.4268ZM12.6152 22.5674H14.2646V27.9375C14.2646 28.263 14.301 28.4968 14.373 28.6348C14.445 28.7743 14.5625 28.8428 14.7305 28.8428C14.873 28.8428 15.0131 28.7994 15.1436 28.7109C15.2756 28.6239 15.3691 28.512 15.4336 28.377V22.5674H17.083V29.8799H17.0801H15.791L15.6504 28.9834H15.6123C15.2613 29.6614 14.7366 30 14.0361 30C13.5501 30 13.1949 29.8405 12.9639 29.5225C12.7329 29.2045 12.6152 28.7062 12.6152 28.0312V22.5674ZM25.6113 23.54C25.4358 23.54 25.3057 23.5933 25.2217 23.6953C25.1377 23.7988 25.0817 23.9681 25.0547 24.2021C25.0262 24.4361 25.0137 24.7916 25.0137 25.2686V25.793H26.2178V25.2686C26.2178 24.7991 26.2024 24.4451 26.1709 24.2021C26.1409 23.9591 26.082 23.7885 25.998 23.6895C25.914 23.5905 25.7868 23.54 25.6113 23.54ZM20.3877 23.5928C20.2287 23.5928 20.0832 23.6557 19.9482 23.7832C19.8132 23.9107 19.7166 24.0745 19.6611 24.2725V28.4238C19.7331 28.5513 19.8269 28.6464 19.9424 28.7109C20.0579 28.7739 20.1809 28.8076 20.3174 28.8076C20.4929 28.8076 20.6299 28.7447 20.7334 28.6172C20.8369 28.4897 20.9126 28.2757 20.9561 27.9727C20.9996 27.6712 21.0205 27.2512 21.0205 26.7188V25.7783C21.0205 25.2053 21.0038 24.7646 20.9678 24.4541C20.9318 24.1436 20.8673 23.9196 20.7773 23.7891C20.6858 23.6586 20.5557 23.5928 20.3877 23.5928Z" fill="white"/>
</svg>
